<?xml version="1.0" encoding="UTF-8" standalone="no"?>
<!DOCTYPE svg PUBLIC "-//W3C//DTD SVG 1.1//EN" "http://www.w3.org/Graphics/SVG/1.1/DTD/svg11.dtd">
<svg width="100%" height="100%" viewBox="0 0 500 500" version="1.1" xmlns="http://www.w3.org/2000/svg" xmlns:xlink="http://www.w3.org/1999/xlink" xml:space="preserve" xmlns:serif="http://www.serif.com/" style="fill-rule:evenodd;clip-rule:evenodd;stroke-linejoin:round;stroke-miterlimit:2;">
    <g transform="matrix(10,0,0,10,0,-3.75e-05)">
        <path d="M25,1.646C30.047,1.646 34.937,2.118 39.511,2.906C43.455,3.614 46.452,6.607 47.161,10.544C47.95,15.112 48.344,19.916 48.344,25.034C48.344,30.074 47.95,34.957 47.161,39.524C46.452,43.462 43.455,46.375 39.511,47.084C34.937,47.872 30.047,48.344 25,48.344C19.952,48.344 15.063,47.872 10.488,47.084C6.545,46.375 3.627,43.462 2.917,39.524C2.05,34.957 1.655,30.074 1.655,25.034C1.655,19.916 2.05,15.112 2.917,10.544C3.627,6.607 6.545,3.614 10.488,2.906C15.063,2.118 19.952,1.646 25,1.646Z" style="fill:rgb(32,32,32);"/>
        <g transform="matrix(0.0657371,0,0,0.0657371,10.5856,10.5804)">
            <path d="M409.132,114.573C389.524,80.977 362.927,54.379 329.334,34.773C295.736,15.166 259.057,5.365 219.271,5.365C179.49,5.365 142.799,15.169 109.208,34.773C75.612,54.378 49.016,80.977 29.408,114.573C9.803,148.168 0,184.854 0,224.63C0,272.41 13.94,315.375 41.827,353.536C69.711,391.7 105.733,418.108 149.89,432.763C155.03,433.717 158.835,433.046 161.309,430.767C163.784,428.485 165.02,425.627 165.02,422.205C165.02,421.634 164.971,416.497 164.876,406.788C164.778,397.079 164.732,388.609 164.732,381.382L158.165,382.518C153.978,383.285 148.696,383.61 142.319,383.518C135.945,383.429 129.328,382.761 122.477,381.519C115.623,380.288 109.248,377.433 103.347,372.96C97.449,368.487 93.262,362.632 90.787,355.404L87.932,348.834C86.029,344.46 83.033,339.601 78.94,334.275C74.847,328.944 70.708,325.33 66.521,323.427L64.522,321.996C63.19,321.045 61.954,319.898 60.811,318.567C59.669,317.236 58.814,315.904 58.243,314.57C57.671,313.235 58.145,312.14 59.67,311.281C61.195,310.422 63.951,310.005 67.95,310.005L73.658,310.858C77.465,311.621 82.174,313.9 87.791,317.709C93.405,321.515 98.02,326.463 101.637,332.551C106.017,340.357 111.294,346.305 117.483,350.398C123.667,354.491 129.902,356.534 136.182,356.534C142.462,356.534 147.886,356.058 152.456,355.111C157.021,354.159 161.304,352.728 165.303,350.826C167.016,338.068 171.68,328.267 179.291,321.416C168.443,320.276 158.69,318.559 150.027,316.276C141.369,313.99 132.422,310.28 123.192,305.136C113.957,299.999 106.296,293.62 100.207,286.01C94.117,278.396 89.119,268.4 85.22,256.031C81.319,243.657 79.368,229.383 79.368,213.205C79.368,190.17 86.888,170.568 101.925,154.388C94.881,137.07 95.546,117.656 103.922,96.148C109.442,94.433 117.628,95.72 128.476,100.001C139.326,104.284 147.27,107.953 152.316,110.995C157.362,114.036 161.405,116.613 164.451,118.703C182.156,113.756 200.427,111.282 219.269,111.282C238.111,111.282 256.386,113.756 274.092,118.703L284.941,111.854C292.36,107.284 301.121,103.096 311.203,99.289C321.291,95.484 329.005,94.436 334.337,96.151C342.899,117.66 343.662,137.073 336.616,154.391C351.652,170.571 359.175,190.178 359.175,213.208C359.175,229.386 357.217,243.705 353.322,256.174C349.422,268.645 344.381,278.631 338.197,286.153C332.006,293.674 324.296,300.003 315.066,305.139C305.834,310.279 296.884,313.989 288.226,316.275C279.564,318.561 269.811,320.279 258.963,321.421C268.857,329.983 273.805,343.498 273.805,361.96L273.805,422.197C273.805,425.619 274.995,428.476 277.377,430.759C279.756,433.038 283.513,433.709 288.653,432.754C332.816,418.101 368.838,391.692 396.721,353.528C424.601,315.367 438.546,272.402 438.546,224.622C438.536,184.851 428.728,148.168 409.132,114.573Z" style="fill:rgb(250,250,250);fill-rule:nonzero;"/>
        </g>
        <path d="M24.999,50C20.126,50 15.15,49.566 10.206,48.714C5.54,47.876 2.126,44.468 1.287,39.818C0.433,35.323 0,30.344 0,25.035C0,19.65 0.421,14.81 1.289,10.235C2.122,5.621 5.619,2.099 10.196,1.277C20.118,-0.427 29.894,-0.424 39.792,1.274C44.431,2.107 47.96,5.632 48.791,10.252C48.959,11.416 49.118,12.525 49.276,13.711C49.397,14.617 48.761,15.45 47.854,15.569C46.953,15.708 46.113,15.056 45.994,14.15C45.836,12.976 45.68,11.877 45.521,10.781C44.946,7.59 42.468,5.116 39.218,4.533C29.716,2.9 20.296,2.897 10.77,4.535C7.532,5.116 5.143,7.533 4.547,10.838C3.716,15.219 3.312,19.859 3.312,25.035C3.312,30.138 3.726,34.91 4.544,39.219C5.134,42.485 7.523,44.87 10.783,45.456C20.274,47.094 29.717,47.097 39.228,45.453C42.527,44.862 44.946,42.477 45.531,39.232C46.298,34.791 46.688,30.011 46.688,25.035L46.688,23.773C46.688,22.859 47.43,22.118 48.344,22.118C49.258,22.118 50,22.859 50,23.773L50,25.035C50,30.198 49.594,35.168 48.792,39.807C47.968,44.387 44.44,47.878 39.804,48.711C34.85,49.566 29.872,50 24.999,50Z" style="fill-rule:nonzero;"/>
        <g transform="matrix(-1,0,0,1,50,0)">
            <path d="M24.999,50C20.126,50 15.15,49.566 10.206,48.714C5.54,47.876 2.126,44.468 1.287,39.818C0.433,35.323 0,30.344 0,25.035C0,19.65 0.421,14.81 1.289,10.235C2.122,5.621 5.619,2.099 10.196,1.277C20.118,-0.427 29.894,-0.424 39.792,1.274C44.431,2.107 47.96,5.632 48.791,10.252C48.959,11.416 49.118,12.525 49.276,13.711C49.397,14.617 48.761,15.45 47.854,15.569C46.953,15.708 46.113,15.056 45.994,14.15C45.836,12.976 45.68,11.877 45.521,10.781C44.946,7.59 42.468,5.116 39.218,4.533C29.716,2.9 20.296,2.897 10.77,4.535C7.532,5.116 5.143,7.533 4.547,10.838C3.716,15.219 3.312,19.859 3.312,25.035C3.312,30.138 3.726,34.91 4.544,39.219C5.134,42.485 7.523,44.87 10.783,45.456C20.274,47.094 29.717,47.097 39.228,45.453C42.527,44.862 44.946,42.477 45.531,39.232C46.298,34.791 46.688,30.011 46.688,25.035L46.688,23.773C46.688,22.859 47.43,22.118 48.344,22.118C49.258,22.118 50,22.859 50,23.773L50,25.035C50,30.198 49.594,35.168 48.792,39.807C47.968,44.387 44.44,47.878 39.804,48.711C34.85,49.566 29.872,50 24.999,50Z" style="fill-rule:nonzero;"/>
        </g>
    </g>
</svg>
