<?xml version="1.0" encoding="UTF-8" standalone="no"?>
<!DOCTYPE svg PUBLIC "-//W3C//DTD SVG 1.1//EN" "http://www.w3.org/Graphics/SVG/1.1/DTD/svg11.dtd">
<svg width="100%" height="100%" viewBox="0 0 713 585" version="1.1" xmlns="http://www.w3.org/2000/svg" xmlns:xlink="http://www.w3.org/1999/xlink" xml:space="preserve" xmlns:serif="http://www.serif.com/" style="fill-rule:evenodd;clip-rule:evenodd;stroke-linecap:round;stroke-linejoin:round;stroke-miterlimit:1.5;">
    <g transform="matrix(1,0,0,1,-3.65449e-05,1.99892)">
        <g id="Artboard1" transform="matrix(1,0,0,1,-3.65449e-05,-2.00108)">
            <rect x="0" y="2.001" width="714" height="584.999" style="fill:none;"/>
            <clipPath id="_clip1">
                <rect x="0" y="2.001" width="714" height="584.999"/>
            </clipPath>
            <g clip-path="url(#_clip1)">
                <g transform="matrix(1,0,0,1,-638.314,-1347.12)">
                    <g>
                        <g id="Couleurs">
                            <path d="M999.94,1551.02C1000.31,1552.35 995.835,1554.45 996.221,1555.68C1009.83,1599.18 1037.96,1578.61 1078.04,1543.59C1082.18,1539.97 1084.18,1535.81 1084.81,1531.49C1085.47,1526.91 1080.05,1519.68 1080.05,1519.68C1080.05,1519.68 1072.85,1498.87 1073.36,1496.97C1073.91,1494.91 1072.18,1492.01 1073.67,1490.14C1076.69,1486.34 1083.87,1483.61 1086.63,1478.53C1092.01,1468.64 1092.47,1455.33 1080.05,1451.26C1075.83,1449.87 1071.29,1451.61 1063.35,1452.14C1048.36,1453.13 1043.58,1412.85 991.387,1407.51C988.137,1407.18 985.096,1404.94 982.249,1404.79C921.368,1401.54 949.842,1439.99 949.345,1452.14C949.024,1459.97 953.961,1467.44 954.806,1474.51C955.765,1482.53 955.433,1490.03 957.492,1496.97C968.458,1533.9 996.108,1554.61 999.94,1551.02Z" style="fill:none;"/>
                            <path d="M996.54,1557.68C990.864,1558.15 962.788,1560.15 934.124,1574.74C925.665,1579.05 924.894,1579.28 916.217,1585.61C898.887,1598.26 905.206,1612.79 861.404,1704.65C854.606,1718.91 853.612,1730.79 850.039,1739.8C847.422,1746.4 844.665,1750.77 842.85,1755.35C842.066,1757.33 845.45,1756.7 848.129,1758.09C853.884,1761.07 863.612,1765.37 872.628,1768.6C897.014,1777.33 913.595,1788.56 919.973,1784.91C921.686,1783.93 920.919,1779.61 921.457,1776.59C922.424,1771.18 931.145,1739.29 946.209,1713.52C949.403,1708.05 949.233,1703.94 951.455,1704.54C957.848,1706.27 961.967,1730.41 973.899,1761.5C980.677,1779.16 982.485,1787.48 984.497,1796.24C989.233,1816.86 985.797,1823.13 996.221,1824.3C1094.7,1835.34 1100.6,1829.57 1203.4,1841.09C1226.58,1843.69 1228.31,1843.96 1230.49,1842.89C1224.29,1779.25 1219.7,1773.58 1224.03,1776.59C1229.25,1780.24 1274.58,1814.79 1304.8,1824.08C1315.27,1827.3 1322.16,1823.97 1327.35,1820.08C1385.22,1776.75 1331.01,1729 1240.08,1575.43C1222.79,1546.23 1168.5,1541.35 1130.16,1535.62C1107.53,1532.23 1091.92,1526.92 1089.47,1529.82C1072.81,1549.53 1067.42,1562.05 1029.33,1575.43C1019.77,1578.8 1013.98,1579.98 1009.73,1576.34C1005.23,1572.48 1002.39,1563.51 996.329,1556.98" style="fill:none;"/>
                            <g transform="matrix(1,0,0,1,5,0)">
                                <path d="M1149,1576.34L1188.4,1585.34" style="fill:none;"/>
                            </g>
                            <g transform="matrix(1,0,0,1,-101,0)">
                                <path d="M1172,1585.34L1203.4,1576.34" style="fill:none;"/>
                            </g>
                            <g transform="matrix(1,0,0,1,4,0)">
                                <path d="M1149,1549.05L1182,1534.98" style="fill:none;"/>
                            </g>
                            <g transform="matrix(-1,0,0,1,2257,0)">
                                <path d="M1149,1549.05L1182,1530.19" style="fill:none;"/>
                            </g>
                            <path d="M1170.74,1645.73C1166.44,1642.44 1139.47,1609.42 1136.34,1584.2C1133.14,1558.46 1141.62,1545.27 1133.99,1550C1120.12,1558.6 1118.17,1567.31 1118.22,1570.09C1118.56,1589.59 1121.15,1597.87 1116.95,1598.42C1108.36,1599.55 1105.93,1595.94 1073.48,1600.95C1066.38,1602.05 1062.79,1603.36 1062.12,1606.96C1061.46,1610.47 1063.64,1616.21 1063.35,1622.04C1063.23,1624.55 1061.34,1627.26 1060.72,1630.19C1059.83,1634.38 1067.36,1639.81 1064.46,1641.51C1056.78,1646.01 1058.98,1648.86 1065.31,1657.6C1066.04,1658.61 1066.29,1667.38 1068.43,1668.01C1095.41,1675.83 1087,1668.69 1118,1680.09C1134.17,1686.04 1153.12,1694.27 1151.16,1695.18C1151.16,1695.18 1161.72,1684.76 1166.98,1679.27C1176.85,1668.98 1173.05,1649.23 1170.74,1645.73Z" style="fill:none;"/>
                            <path d="M948.986,1456.72C941.853,1451.46 930.47,1448.77 931.488,1428.78C926.611,1430.17 926.922,1430.46 919.668,1431.63C943.89,1404.43 929.236,1362.5 1003.37,1351.73C1031.99,1347.57 1030.65,1357.78 1041.66,1361.78C1042.62,1362.12 1044.49,1360.54 1046.55,1359.84C1049,1359.01 1051.7,1359.02 1053.43,1359.23C1065.09,1360.64 1069.85,1366.11 1074.71,1371.45C1079.81,1377.05 1084.89,1382.75 1092.84,1394.86C1096.95,1401.13 1095.31,1407.17 1093.31,1426.65C1092.26,1436.96 1087.55,1417.6 1087.32,1416.89C1096.64,1429.93 1083.04,1462.41 1084.64,1453.39C1085.34,1449.42 1066.11,1453.17 1064.33,1456.72C1063.47,1458.43 1061.07,1478.07 1054.87,1461.1C1042.21,1426.42 1025.25,1438.74 1005.94,1424.9C985.721,1410.39 983.705,1398.63 973.223,1411.69C969.415,1416.44 957.331,1416.87 954.809,1422.09C947.546,1437.11 948.837,1440.27 948.986,1456.72Z" style="fill:rgb(43,43,43);"/>
                        </g>
                        <path d="M1063.35,1458.5C1066.93,1457.67 1077.15,1444.83 1086.42,1455.07C1088.96,1457.88 1096.94,1477.61 1073.67,1490.14" style="fill:none;"/>
                        <path d="M1095.62,1530.19C1184.86,1546.82 1228.7,1531.19 1270.26,1625.48C1272.5,1630.57 1275.18,1633.72 1304.32,1682.5C1315.2,1700.7 1318.83,1703.44 1330.88,1720.84" style="fill:none;"/>
                        <path d="M1338.91,1736.58C1349.98,1769.25 1362.08,1802.61 1324.46,1821.25C1306.13,1830.33 1303.71,1824.34 1268.71,1806.3C1241.54,1792.29 1190.25,1753.35 1175.96,1722.75" style="fill:none;"/>
                        <path d="M1194.31,1665.35C1202,1659.73 1202.35,1654.3 1209.19,1660.56C1212.32,1663.42 1229.73,1687.84 1254.21,1697.76C1288.18,1711.52 1291.82,1704.1 1313.2,1722.39" style="fill:none;"/>
                        <path d="M1088.39,1528.72C1077.23,1547.74 1063.28,1559.6 1050.95,1566.96" style="fill:none;"/>
                        <path d="M1050.95,1566.96C1034.94,1576.52 1021.66,1578.49 1020.79,1578.7C1005.78,1582.37 1001.37,1567.11 996.221,1555.68" style="fill:none;"/>
                        <path d="M1194.31,1665.35C1201.17,1671.88 1192.29,1701.01 1175.96,1722.75" style="fill:none;"/>
                        <g transform="matrix(1,0,0,1,0,-2)">
                            <path d="M1060.02,1509.62C1060.02,1509.62 1054.04,1521.68 1050.33,1526.72C1046.64,1531.72 1035.75,1538.32 1035.75,1538.32" style="fill:none;"/>
                        </g>
                        <path d="M1175.96,1722.75C1162.02,1710.43 1141.27,1699.33 1148.14,1695.88C1179.16,1680.3 1172.99,1651.1 1170.49,1640.37C1173.08,1640.58 1176.56,1642.5 1194.31,1665.35" style="fill:none;"/>
                        <path d="M1030.29,1434.03C1038.11,1437.89 1037.86,1439.46 1041.83,1440.99C1048.97,1443.74 1048.14,1441.96 1058.32,1445.73" style="fill:none;stroke:black;stroke-width:4px;"/>
                        <path d="M1222.48,1775.94C1222.54,1786.7 1229.1,1835.55 1229.79,1840.72" style="fill:none;"/>
                        <path d="M1039.5,1362.34C1028.9,1349.49 1025.19,1343.01 980.488,1356.94C970.628,1360.01 949.803,1362.46 940.219,1390.72C931.777,1415.61 932.921,1425.26 911.776,1432.89C924.473,1433.56 925.155,1432.04 932.079,1430.12" style="fill:none;stroke:black;stroke-width:4px;"/>
                        <path d="M923.243,1629.98C944.131,1644.14 931.307,1665.22 954.782,1711.44C958.812,1719.38 982.577,1781.73 991.072,1822.34" style="fill:none;"/>
                        <path d="M996.221,1555.68C949.609,1563.76 926.209,1576.55 914.321,1587.08C905.601,1594.8 903.075,1601.31 902.123,1603.85" style="fill:none;"/>
                        <path d="M898.123,1616.85C885.987,1649.27 882.708,1656.25 873.821,1677.42" style="fill:none;"/>
                        <path d="M1188.98,1657.77C1184,1629.01 1178.76,1629.62 1181.08,1600.44" style="fill:none;"/>
                        <path d="M950.361,1705.84C930.966,1732.79 919.21,1784.91 919.21,1784.91L842.85,1755.35C842.85,1755.35 848.346,1749.82 856.587,1717.58C860.014,1704.18 867.362,1689.78 869.432,1686.23" style="fill:none;"/>
                        <path d="M1172.04,1647.61C1152.43,1614.85 1147.13,1617.88 1139.67,1594.31C1129.59,1562.47 1141.81,1547 1131.74,1550.48C1113.08,1556.92 1118.36,1582.39 1119.27,1595.94" style="fill:none;"/>
                        <path d="M1125.08,1599.01C1097.93,1597.02 1097.93,1596.96 1071.2,1601.7C1059.03,1603.85 1060.94,1610.09 1063.2,1620.24" style="fill:none;"/>
                        <path d="M1096.8,1610.27C1094.21,1610.72 1083.15,1612.68 1066.36,1622.39C1056.5,1628.09 1058.06,1631 1064.26,1640.37" style="fill:none;"/>
                        <path d="M1095.42,1627.84C1092.94,1628.84 1065.11,1640.05 1064.41,1640.5C1055.6,1646.19 1059.38,1648.65 1065.49,1657.14" style="fill:none;"/>
                        <path d="M1097.1,1649.13C1096.12,1649.09 1088.87,1645.91 1069.12,1656.47C1060.53,1661.06 1064.11,1670.76 1078.47,1671.52C1111.35,1673.27 1108.11,1675.03 1121.97,1679.64C1135.51,1684.15 1138.1,1686.53 1149.49,1695.18" style="fill:none;"/>
                        <path d="M961.464,1416.47C951.352,1423.39 950.795,1425.33 949.105,1440.16C947.148,1457.35 951.856,1462.17 953.286,1466.79C949.437,1454.14 943.033,1455.27 936.508,1447.94C930.742,1441.47 933.32,1438.84 932.992,1426.18" style="fill:none;stroke:black;stroke-width:4px;"/>
                        <path d="M1080.98,1404.52C1088.41,1416.82 1089.4,1413.45 1092.34,1430.49C1098.25,1406.64 1104.36,1396.37 1066.23,1363.93C1065.68,1363.46 1062.32,1360.6 1058.15,1359.68C1057.72,1359.59 1057.75,1359.65 1052.69,1359.23" style="fill:none;stroke:black;stroke-width:4px;"/>
                        <path d="M959.883,1407.51C952.242,1394.18 951.155,1391.46 953.563,1387.52C956.736,1382.32 958.205,1384.27 977.366,1373.49" style="fill:none;stroke:black;stroke-width:4px;"/>
                        <path d="M1090.43,1428.53C1089.28,1441.09 1090.88,1441.42 1086.08,1453.14" style="fill:none;stroke:black;stroke-width:4px;"/>
                        <path d="M970.955,1412.6C982.718,1394 990.63,1412.31 998.963,1419.61C1022.16,1439.93 1044.08,1431.16 1048.6,1430.1C1033.76,1425.5 1035.12,1427.27 1027.38,1423.53C1018.37,1419.17 1020.74,1420 1012.88,1413.96" style="fill:none;stroke:black;stroke-width:4px;"/>
                        <path d="M968.67,1401C975.961,1389.73 981.295,1375.46 1000.88,1394.79C1013.88,1407.62 1022.36,1408.73 1041.78,1409.26" style="fill:none;stroke:black;stroke-width:4px;"/>
                        <path d="M1071.57,1476.92C1074.61,1469.58 1073.51,1468.95 1079.08,1463.4" style="fill:none;"/>
                        <path d="M1004.58,1550.09C1008.83,1558.4 1008.19,1556.75 1010.08,1565.51" style="fill:none;"/>
                        <g transform="matrix(1,0,0,1,0,6)">
                            <path d="M971.872,1443.15C960.597,1441.1 960.181,1441.93 950.919,1448.69" style="fill:none;"/>
                        </g>
                        <g transform="matrix(1,0,0,1,1,6)">
                            <path d="M996.281,1441.81C1010.01,1433.48 1013.23,1437.13 1025.63,1440.44" style="fill:none;"/>
                        </g>
                        <path d="M1009.04,1460.52C1008.03,1478.6 1024.14,1476.99 1020.37,1460" style="fill:none;"/>
                        <path d="M974,1466C975.141,1483.13 963.152,1481.58 965.054,1464.16" style="fill:none;"/>
                        <path d="M974.684,1465.99C963.038,1463.42 962.594,1463.28 956.764,1466.88" style="fill:none;"/>
                        <path d="M1001.9,1463.63C1012.12,1458.59 1014.74,1458.79 1023.57,1459.81" style="fill:none;"/>
                        <g transform="matrix(1,0,0,1,0,3)">
                            <path d="M981.436,1514.01C982.882,1513.24 988.259,1511.75 990.951,1510.71C992.289,1510.2 993.819,1510.97 995.281,1510.71C996.538,1510.5 997.793,1509.48 999,1509.62C1005.21,1510.33 1015.1,1508.43 1014.44,1507.62C1017.97,1511.78 996.047,1533.55 981.436,1514.01Z" style="fill:none;"/>
                        </g>
                        <g transform="matrix(1,0,0,1,0,3)">
                            <path d="M982.766,1514.05C983.332,1514.15 982.872,1514.07 983.388,1514.16C995.172,1516.31 994.484,1516.72 1000.14,1515.19C1002.87,1514.45 1012.47,1509.91 1013.52,1509.32" style="fill:none;"/>
                        </g>
                        <g transform="matrix(1,0,0,1,0,5)">
                            <path d="M982.558,1481.29C980.596,1487.75 979.163,1490.48 990.499,1494.93" style="fill:none;"/>
                        </g>
                        <path d="M1053.66,1456.49C1060.57,1471.36 1057.12,1471.68 1057.26,1473.79C1063.85,1461.14 1064.53,1453.84 1064.7,1452.01" style="fill:none;stroke:black;stroke-width:4px;"/>
                        <path d="M1020.96,1543.28C1002.4,1549.48 1001.82,1556.55 986.511,1544.29C969.098,1530.35 958.132,1500.56 957.567,1497.22C956.805,1492.71 956.196,1477.89 955.573,1474.76C954.372,1468.71 952.024,1464.09 949.345,1454.88" style="fill:none;"/>
                        <path d="M1074.23,1500.36C1075.98,1517.17 1077.95,1511.8 1084.49,1530.31" style="fill:none;"/>
                        <g id="Bureau">
                            <path d="M1338,1852L724.864,1802.42C724.864,1802.42 626.386,1871.38 639.52,1883.62C652.655,1895.87 781.318,1907.51 803.671,1907.87C906.298,1909.55 1097.42,1934.41 1169.65,1931.89C1354.67,1925.44 1338,1852 1338,1852Z" style="fill:none;"/>
                            <path id="Bureau1" serif:id="Bureau" d="M1338,1852C1095.33,1832.33 950.337,1820.69 707.671,1801.02" style="fill:none;"/>
                        </g>
                        <g id="PC">
                            <path d="M1057,1837L941,1828C941,1828 906.823,1707.74 899.657,1683.24C899.395,1682.35 898.929,1681.05 898,1681C862.057,1679.13 720.167,1673 684,1672C682.586,1671.96 680.567,1673.65 681,1675C690,1703 738,1840 738,1840L947,1858L1047,1845L1053,1843L1057,1837Z" style="fill:rgb(200,200,200);stroke:black;stroke-width:4px;"/>
                            <g transform="matrix(0.538424,0.0564861,-0.0433469,0.413182,454.218,1000.32)">
                                <path d="M783.624,1754.61C796.241,1771.73 794.504,1768.96 804.49,1788.41C809.868,1761.32 809.605,1761.38 819.266,1735.36C825.517,1718.52 818.173,1707.55 807.034,1709.1C788.194,1711.73 793.389,1728.92 793.349,1734.27C791.953,1736.64 794.342,1701.83 770.072,1716.48C753.529,1726.46 779.294,1749.97 783.624,1754.61Z" style="fill:rgb(143,143,143);"/>
                            </g>
                            <path d="M1057,1837L947,1851" style="fill:none;stroke:black;stroke-width:4px;"/>
                            <path d="M947,1858L947,1851L941,1828" style="fill:none;stroke:black;stroke-width:4px;"/>
                        </g>
                    </g>
                </g>
            </g>
        </g>
    </g>
</svg>
