<?xml version="1.0" encoding="UTF-8" standalone="no"?>
<!DOCTYPE svg PUBLIC "-//W3C//DTD SVG 1.1//EN" "http://www.w3.org/Graphics/SVG/1.1/DTD/svg11.dtd">
<svg width="100%" height="100%" viewBox="0 0 638 618" version="1.1" xmlns="http://www.w3.org/2000/svg" xmlns:xlink="http://www.w3.org/1999/xlink" xml:space="preserve" xmlns:serif="http://www.serif.com/" style="fill-rule:evenodd;clip-rule:evenodd;stroke-linecap:round;stroke-linejoin:round;stroke-miterlimit:1.5;">
    <g transform="matrix(1,0,0,1,-144.5,-1292.87)">
        <g id="Couleur">
            <path d="M465.296,1876.1C465.48,1866.09 463.025,1846.02 463.025,1846.02C463.025,1846.02 465.509,1819.3 463.656,1792.67C448.485,1810.85 447.199,1831.29 420.262,1831.49C413.062,1831.54 396.54,1821.62 380.9,1807.59C366.484,1794.65 355.638,1771.22 344.689,1755.88C334.162,1741.13 325.238,1732.39 325.764,1723.74C326.086,1718.44 324.884,1716.34 324.487,1713C323.716,1706.52 318.88,1703.46 315.779,1699.06C312.497,1694.4 309.063,1689.37 304.449,1679.71C305.804,1679.47 303.22,1671.2 304.449,1670.91C337.398,1663.16 326.319,1642.77 336.701,1638.61C339.927,1637.31 339.594,1641.23 342.298,1642.51C347.569,1645.01 351.211,1650.03 358.688,1657.92C361.151,1660.52 361.045,1664.23 364.51,1667.88C366.284,1669.76 378.554,1673.26 377.612,1674.55C377.612,1674.55 385.794,1691.97 390.393,1698.06C399.353,1667.64 399.719,1669.82 404.018,1639.71C415.267,1560.9 433.462,1558.23 442.915,1552.82C457.586,1544.42 486.715,1538.47 504.833,1532.7C537.49,1522.28 541.573,1517.4 544.258,1524.39C545.634,1527.98 550.347,1536.44 557.23,1542.68C568.511,1552.9 575.931,1557.44 593.762,1558.41C607.193,1559.13 618.289,1558.61 635.051,1542.68C636.982,1540.84 642.783,1532.89 646.48,1526.9C648.323,1523.91 646.259,1519.52 649.671,1520.37C682.211,1528.46 684.704,1533.67 715.163,1546.67C716.549,1547.26 731.255,1554.66 744.339,1562.85C751.048,1567.05 762.339,1572.8 768.264,1580.96C775.733,1591.25 778.17,1607.93 779.458,1628.07C780.297,1641.18 776.184,1661.5 773.685,1679.71C771.722,1694 766.385,1711.83 762.387,1728.88C758.879,1743.84 757.123,1757.48 749.808,1777.39C744.356,1792.24 737.355,1804.7 730.661,1811.78C726.714,1815.94 722.293,1815.75 719.924,1819.78C717.35,1824.17 719.792,1829.12 719.827,1835.49C719.862,1841.94 720.269,1850.05 718.113,1860.09C714.907,1875.01 718.927,1885.66 720.028,1892.61C724.144,1918.58 666.238,1910.65 593.762,1902.18C546.636,1896.67 485.951,1894.12 465.296,1876.1Z" style="fill:rgb(56,130,186);"/>
            <path d="M550.47,1534.02C550.434,1530.86 552.213,1527.03 552.258,1524.48C552.515,1509.8 551.904,1501.09 550.876,1496.97C550.084,1493.79 549.605,1494.89 545.62,1488.39C543.523,1484.96 539.132,1476.4 535.257,1467.57C532.717,1461.78 533.821,1459.31 530.219,1456.09C529.193,1455.17 520.93,1454.08 515.597,1447.8C512.462,1444.1 508.067,1437.26 506.486,1432.32C504.934,1427.48 507.485,1423.93 509.262,1421.61C511.15,1419.14 516.582,1419.36 517.683,1417.92C520.79,1413.86 520.296,1410.49 522.633,1403.84C527.686,1389.45 528.04,1343.16 582.443,1341.23C629.797,1339.55 635.662,1387 659.82,1412.32C670.271,1423.27 668.361,1428.44 663.449,1435.2C661.166,1438.34 655.89,1444 653.81,1445.57C651.507,1447.31 647.849,1447.66 646.184,1451.33C644.559,1454.91 643.179,1459.74 640.644,1466.57C639.605,1469.37 637.744,1472.13 636.578,1475.87C635.259,1480.11 634.4,1484.29 633.873,1488.39C633.164,1493.9 633.838,1502.04 634.022,1507.14C634.219,1512.57 634.681,1517.47 635.069,1521.88C635.327,1524.81 640.552,1531.52 640.644,1534.02C640.746,1536.75 638.878,1538.58 637.561,1540.03C635.608,1542.18 633.668,1543.5 631.445,1545.73C621.562,1555.62 611.231,1558.48 601.699,1559.14C583.655,1560.4 568.47,1551.2 564.589,1548.83C564.286,1548.65 562.174,1547.38 557.353,1542.44C555.368,1540.41 554.132,1537.11 550.47,1534.02Z" style="fill:rgb(219,201,171);"/>
            <path d="M545.917,1712.81C542.14,1710.63 541.375,1706.73 538.253,1705.42C528.794,1701.48 526.741,1704.2 519.618,1704.29C510.86,1704.4 493.998,1704.23 486.031,1703.37C482.447,1702.99 468.944,1702.79 466.107,1700.92C462.736,1698.69 459.912,1699.92 457.679,1693.84C456.861,1691.61 458.114,1686.09 457.44,1683.23C457.025,1681.48 454.951,1679.6 454.597,1677.59C453.97,1674.03 457.174,1669.11 457.44,1665.28C457.633,1662.49 454.724,1660.75 455.212,1658.22C455.701,1655.69 457.614,1653.4 457.44,1651.45C457.277,1649.63 461.303,1649.06 459.051,1647.84C456.811,1646.62 450.364,1647.36 445.478,1646.72C442.053,1646.28 419.601,1647.18 410.522,1642.15C408.871,1641.24 408.138,1638.74 408.27,1636.47C408.34,1635.25 409.372,1634.1 409.047,1633.3C408.363,1631.62 423.166,1631.07 443.478,1629.84C452.972,1629.27 464.33,1629.13 477.153,1629.77C482.102,1630.02 491.209,1630.23 496.436,1630.73C497.692,1630.86 506.236,1630.48 508.017,1624.22C508.668,1621.94 512.922,1617.64 510.128,1612.87C507.532,1608.43 507.526,1597.88 508.017,1588.52C508.545,1578.47 513.382,1569.48 515.739,1569.96C517.42,1570.3 522.792,1575.54 523.126,1588.52C523.392,1598.83 528.421,1609.73 533.323,1619.78C537.953,1629.27 541.685,1639.23 545.917,1645.6C552.362,1655.29 552.846,1657.07 557.862,1662.42C561.815,1666.64 566.793,1667.77 566.306,1669.59C564.055,1678.03 564.347,1681.75 563.772,1685.31C562.728,1691.79 561.71,1694.64 557.862,1702.12C556.498,1704.77 552.332,1708.39 545.917,1712.81Z" style="fill:rgb(219,201,171);"/>
            <path d="M306.905,1673.87C304.654,1669.61 303.736,1664.21 301.939,1661.47C299.453,1657.69 299.548,1655.13 296.816,1653.68C291.557,1650.89 287.531,1652.4 276.181,1650.83C273.544,1650.46 271.622,1649.19 268.638,1648.98C261.194,1648.46 252.355,1649.15 247.536,1647.5C244.265,1646.38 242.961,1644.7 242.406,1642.64C241.778,1640.31 244.092,1636.69 243.515,1635.05C242.567,1632.36 240.594,1631.71 239.439,1630.04C237.439,1627.13 237.028,1624.35 237.536,1617.36C237.694,1615.18 234.978,1614.83 234,1613.86C232.327,1612.2 231.886,1610.42 231.742,1606.73C231.714,1606.03 230.464,1605.54 233.121,1601.44C233.925,1600.2 236.471,1599.04 237.768,1596.94C234.186,1595.85 222.648,1596.22 211.902,1595.71C199.643,1595.12 196.022,1594.15 188.236,1591.55C182.886,1589.76 181.788,1586.47 183.497,1582.88C185.76,1578.12 201.526,1577 227.055,1578.95C244.843,1580.32 262.967,1579.27 272.508,1578.95C277.958,1578.78 278.26,1580.29 278.498,1577.45C278.954,1571.99 280.308,1567.65 278.184,1562.4C277.2,1559.96 276.839,1560.39 276.181,1557.44C275.448,1554.16 272.487,1547.23 272.916,1542.84C273.166,1540.29 274.176,1533.2 274.176,1533.2C274.176,1533.2 277.665,1529.22 278.498,1527.37C279.066,1526.11 284.819,1522.63 287.798,1542.84C288.419,1547.06 291.775,1554.34 293.532,1558.37C303.293,1580.73 325.063,1596.85 324.629,1611.5C324.509,1615.55 322.599,1619.55 322.777,1622.02C322.921,1624 325.468,1624.88 326.409,1626.38C328.375,1629.51 330.135,1633.06 336.055,1639.15C343.746,1647.05 335.845,1662.03 326.711,1672.48C320.419,1679.67 316.69,1680.05 314.015,1679.59C310.726,1679.02 309.088,1676.38 306.905,1673.87Z" style="fill:rgb(219,201,171);"/>
            <g transform="matrix(1,0,0,1,1,6)">
                <path d="M532.633,1426.33C530.131,1424.45 527.412,1423.1 525.468,1421.76C520.159,1418.11 521.787,1415.94 519.746,1412.71C518.691,1411.05 513.084,1416.37 511.392,1413.77C509.544,1410.95 510.684,1400.09 510.435,1395.28C510.209,1390.91 511.69,1380.89 510.829,1379.29C509.713,1377.21 508.365,1380.6 506.257,1382.88C503.816,1385.52 496.57,1389.13 494.92,1390.2C500.375,1380.25 499.468,1383.86 500.361,1372.92C500.878,1366.58 499.467,1358.34 500.864,1351.12C502.535,1342.5 514.086,1327.08 519.746,1320.3C526.623,1312.06 530.986,1314.83 544.791,1314.2C549.46,1313.99 555.514,1312.04 556.184,1310.15C557.125,1307.48 561.282,1296.53 577.445,1292.47C583.025,1291.06 595.733,1288.84 604.334,1289.63C608.953,1290.06 614.577,1292.92 617.942,1293.47C626.919,1294.93 637.174,1303.55 645.186,1310.91C653.129,1318.22 659.41,1326.65 663.172,1333.75C667.813,1342.5 665.293,1348.71 669.349,1356.83C671.372,1360.88 672.924,1365.84 675.931,1370.01C677.089,1371.61 679.868,1373.19 680.889,1374.42C680.889,1374.42 679.773,1374.67 678.332,1374.98C675.711,1375.56 665.697,1370.12 665.697,1370.12C665.101,1372.44 666.809,1378.09 666.639,1380.91C666.174,1388.64 663.172,1396.98 663.172,1396.98C663.172,1396.98 662.675,1408.46 660.442,1409.97C658.718,1411.14 653.282,1407.46 650.345,1407.8C647.93,1408.08 648.496,1410.72 647.631,1412.71C646.02,1416.42 643.726,1422.31 642.804,1422.97C642.362,1423.3 642.871,1417.46 642.101,1415.38C640.453,1410.95 642.629,1405.84 640.82,1401.11C639.794,1398.42 640.92,1392.45 639.045,1390.2C637.869,1388.79 636.191,1389.39 634.416,1388.89C631.58,1388.09 628.498,1386.62 626.834,1385.89C622.928,1384.16 621.043,1380.54 618.777,1377.63C614.362,1371.96 611.301,1366.21 608.63,1362.86C605.461,1358.88 602.165,1358.2 601.114,1356.83C599.58,1354.83 600.334,1353.14 592.602,1352.34C589.029,1351.98 584.176,1351.43 578.525,1351.4C574.744,1351.39 567.536,1354.86 566.137,1356.3C562.718,1359.82 561.791,1357.46 556.184,1359.27C551.389,1360.81 548.385,1361.72 544.791,1364.6C540.741,1367.83 540.071,1374.12 537.371,1378.63C533.15,1385.68 530.008,1393.43 528.376,1401.11C526.4,1410.4 529.409,1418.63 532.633,1426.33Z" style="fill:rgb(43,43,43);"/>
            </g>
        </g>
        <g transform="matrix(1.08459,0,0,1,-48.313,2)">
            <path d="M554,1419.66C550.089,1440.87 569.727,1440.69 566,1420.36" style="fill:rgb(77,63,53);stroke:black;stroke-width:4.79px;"/>
        </g>
        <g transform="matrix(1.08735,0,0,1,-55.926,5)">
            <path d="M610.962,1417.07C607.918,1437.13 626.889,1435.48 623.397,1415.92" style="fill:rgb(77,63,53);stroke:black;stroke-width:4.79px;"/>
        </g>
        <g transform="matrix(1,0,0,1,1,6)">
            <path d="M650.203,1407.97C674.723,1406.76 669.316,1431.96 644.36,1444.72" style="fill:none;stroke:black;stroke-width:5px;"/>
        </g>
        <path d="M648.271,1437.16C645.992,1445.95 639.865,1499.22 598.207,1512.77C577.037,1519.66 552.717,1496.44 550.516,1493.88C536.866,1478.02 528.229,1448.8 527.278,1444.61" style="fill:none;stroke:black;stroke-width:5px;"/>
        <g transform="matrix(1,0,0,1,0,3)">
            <path d="M529.339,1453.32C508.907,1447.28 495.29,1418.1 519.746,1415.27" style="fill:none;stroke:black;stroke-width:5px;"/>
        </g>
        <g transform="matrix(-1,0,0,1,1177.02,10)">
            <path d="M592.253,1434.41C592.737,1437.65 593.788,1438.91 594.09,1439.15C602.852,1446.21 594.905,1448.81 592.253,1451.56" style="fill:none;stroke:black;stroke-width:5px;"/>
        </g>
        <g transform="matrix(1.08735,0,0,1,-55.926,5)">
            <path d="M605.937,1418.22C614.217,1414.84 617.461,1414.33 628.834,1417.11" style="fill:none;stroke:black;stroke-width:4.79px;"/>
        </g>
        <g transform="matrix(1,0,0,1,1,8)">
            <path d="M597.568,1398.49C611.649,1391.33 617.637,1393.24 630.388,1398.44" style="fill:none;stroke:black;stroke-width:6px;"/>
        </g>
        <g transform="matrix(1,0,0,1,1,3)">
            <path d="M515.047,1427.76C515.91,1431.31 520.299,1433.73 522.388,1434.47" style="fill:none;stroke:black;stroke-width:5px;"/>
        </g>
        <g transform="matrix(1,0,0,1,1,7)">
            <path d="M574.254,1400.64C556.183,1394.37 554.455,1396.73 540.893,1400.75" style="fill:none;stroke:black;stroke-width:6px;"/>
        </g>
        <g transform="matrix(1,0,0,1,1,6)">
            <path d="M639.045,1391.55C641.289,1404.04 641.56,1403.95 641.9,1409.19C642.323,1415.71 641.911,1420.97 642.151,1422.97C648.441,1414.65 652.289,1399.58 652.837,1397.43" style="fill:none;stroke:black;stroke-width:5px;"/>
        </g>
        <g transform="matrix(1,0,0,1,1,6)">
            <path d="M565.154,1357.43C570.021,1352.65 572.188,1350.99 587.436,1351.49C605.292,1352.08 616.414,1376.49 621.661,1381.93C629.26,1389.81 647.77,1394.99 664.231,1383.56C632.894,1379.38 634.935,1372.51 627.466,1359.19" style="fill:none;stroke:black;stroke-width:5px;"/>
        </g>
        <g transform="matrix(1,0,0,1,1,6)">
            <path d="M661.2,1409.29C663.54,1404.2 662.617,1400.53 663.182,1396.91C663.821,1392.84 665.367,1388.84 666.148,1382.96C666.251,1382.18 665.544,1371.4 665.617,1370.55" style="fill:none;stroke:black;stroke-width:5px;"/>
        </g>
        <g transform="matrix(1,0,0,1,1,6)">
            <path d="M555.996,1310.47C556.199,1310.35 559.176,1290.32 599.265,1289.38C620.586,1288.88 646.864,1309.65 656.845,1323.27C670.602,1342.03 665.084,1360.54 679.889,1374.42C670.87,1373.7 671.255,1373.03 662.761,1369.24" style="fill:none;stroke:black;stroke-width:5px;"/>
        </g>
        <g transform="matrix(1,0,0,1,1,6)">
            <path d="M544.822,1314.15C542.092,1313.15 523.625,1305.86 505.659,1338.99C492.853,1362.61 508.463,1367.61 494.579,1390.56C502.471,1386.56 504.585,1386.49 508.85,1379" style="fill:none;stroke:black;stroke-width:5px;"/>
        </g>
        <g transform="matrix(1,0,0,1,1,6)">
            <path d="M508.394,1374.3C514.989,1383.08 507.455,1389.28 511.264,1412.91" style="fill:none;stroke:black;stroke-width:5px;"/>
        </g>
        <g transform="matrix(1,0,0,1,1,6)">
            <path d="M557.23,1345.52C551.59,1339.44 549.439,1332 549.309,1329.68C548.737,1319.4 554.282,1317.63 556.722,1315.83" style="fill:none;stroke:black;stroke-width:5px;"/>
        </g>
        <g transform="matrix(1,0,0,1,1,6)">
            <path d="M562.461,1339.99C566.769,1318.61 600.444,1322.4 602.709,1323.54C617.888,1331.2 614.252,1345.82 643.819,1349.76" style="fill:none;stroke:black;stroke-width:5px;"/>
        </g>
        <path d="M550.876,1495.13C551.132,1496.81 551.529,1499.4 552.191,1516.29C552.542,1525.27 551.401,1532.87 551.21,1534.47" style="fill:none;stroke:black;stroke-width:5px;"/>
        <path d="M634.136,1481.83C634.647,1512.71 631.831,1514.17 639.236,1531.44" style="fill:none;stroke:black;stroke-width:5px;"/>
        <path d="M649,1521L634.635,1516.91L637.841,1528.07L641.655,1534.17L649,1521Z"/>
        <path d="M552.315,1518.97L542.516,1521.74L551,1534.17L552.254,1526L552.315,1518.97Z"/>
        <path d="M635.989,1517.6C694.132,1529.51 761.258,1570.54 768.097,1580.71C797.84,1624.93 760.792,1724.85 751.929,1773.13" style="fill:none;stroke:black;stroke-width:5px;"/>
        <path d="M745.43,1788.86C720.043,1839.16 703.168,1824.71 643.247,1789.07C606.416,1767.16 594.454,1779.13 577.801,1739.86C571.648,1725.35 528.898,1722.48 551.007,1708.46C573.387,1694.26 556.618,1660.3 572.674,1671.17C591.782,1684.11 590.643,1681.85 609.133,1686.04C618.774,1688.23 620.269,1700.94 678.867,1725.22C697.06,1732.76 708.244,1759.88 716.675,1777.57" style="fill:none;stroke:black;stroke-width:5px;"/>
        <path d="M685.033,1728.66C698.443,1682.21 677.317,1659.63 718.066,1603.97" style="fill:none;stroke:black;stroke-width:5px;"/>
        <g transform="matrix(1,0,0,1,0,-1)">
            <path d="M573.601,1479.48C574.472,1479.13 578.378,1477.56 583.651,1476.13C586.435,1475.38 589.599,1475.67 592.9,1475.21C594.761,1474.94 597.664,1473.84 599.568,1473.82C603.28,1473.8 605.99,1474.15 609.373,1474.45C611.344,1474.62 610.409,1478.54 606.747,1482.1C603.931,1484.83 598.094,1488.36 594.226,1488.81C588.695,1489.45 581.368,1487.35 578.052,1485.74C573.5,1483.53 574.851,1480.37 573.601,1479.48Z" style="fill:rgb(192,174,142);"/>
        </g>
        <g transform="matrix(1,0,0,1,0,4)">
            <path d="M573.601,1475.48C594.774,1478.04 597.816,1476.7 609.373,1470.45" style="fill:none;stroke:black;stroke-width:5px;"/>
        </g>
        <g transform="matrix(1,0,0,1,1,6)">
            <path d="M517.223,1407.19C519.59,1410.41 521.371,1422.32 532.633,1426.33C532.343,1425.76 525.659,1401.79 531.938,1389.54" style="fill:none;stroke:black;stroke-width:5px;"/>
        </g>
        <g transform="matrix(1,0,0,1,0,6)">
            <path d="M556.184,1359.27C543.629,1363.08 543.796,1364.4 538.549,1376.4C534.517,1385.63 522.972,1389.05 521.309,1389.54" style="fill:none;stroke:black;stroke-width:5px;"/>
        </g>
        <g transform="matrix(1,0,0,1,2,6)">
            <path d="M655.825,1417C656.147,1419.18 652.577,1423.3 650.433,1426.44" style="fill:none;stroke:black;stroke-width:5px;"/>
        </g>
        <g transform="matrix(1.08459,0,0,1,-48.313,2)">
            <path d="M571.146,1420.85C555.956,1416.55 553.041,1419.39 547.502,1422.63" style="fill:none;stroke:black;stroke-width:4.79px;"/>
        </g>
        <path d="M719.784,1819.78C721.046,1860.48 713.2,1864.54 719.924,1892.61" style="fill:none;stroke:black;stroke-width:5px;"/>
        <path d="M552.254,1518.97C544.856,1520.95 546.443,1520.67 461.872,1545.39C410.924,1560.28 412.853,1590.41 403.088,1645.03C398.016,1673.39 398.028,1669 390.936,1697.05" style="fill:none;stroke:black;stroke-width:5px;"/>
        <path d="M434.852,1770.18C428.539,1734.09 386.485,1695.56 385.407,1692.94C378.901,1677.16 381.772,1673.18 365.398,1668.51C362.24,1667.61 367.815,1661.78 337.286,1638.61C337.744,1647.01 343.707,1660.56 320.36,1677.68C310.157,1685.16 307.496,1669.65 303.838,1669.7C304.288,1671.15 303.389,1673.21 303.838,1674.66C304.673,1677.37 304.899,1678.87 305.591,1681.62C307.521,1689.28 324.035,1708.35 324.315,1713.8C324.7,1721.31 320.444,1723.45 342.456,1753.04" style="fill:none;stroke:black;stroke-width:5px;"/>
        <path d="M349.111,1762.88C353.68,1771.33 369.389,1807.62 411.02,1828.34C440.506,1843.01 446.602,1812.34 463.005,1792.86" style="fill:none;stroke:black;stroke-width:5px;"/>
        <path d="M462.217,1700.49C457.778,1726.93 464.938,1726.78 464.041,1772.54C462.581,1846.98 462.742,1850.29 465.296,1876.1" style="fill:none;stroke:black;stroke-width:5px;"/>
        <path d="M324.242,1713.25C336.475,1707.96 356.201,1699.23 365.256,1670.03" style="fill:none;stroke:black;stroke-width:5px;"/>
        <path d="M566.765,1669.59C553.644,1661.88 545.528,1644.96 544.309,1642.41C530.201,1612.99 527.128,1614 521.971,1581.64C521.808,1580.62 519.378,1565.37 514.101,1571.35C494.163,1593.94 534.23,1635.74 481.083,1630.88C436.801,1626.84 436.168,1632.06 418.565,1631.48C410.012,1631.19 405.079,1633.31 409.279,1640.83C413.364,1648.14 453.274,1646.78 471.618,1648.64" style="fill:none;stroke:black;stroke-width:5px;"/>
        <path d="M457.834,1683.38C456.822,1696.24 456.494,1699.55 469.301,1701.31C492.664,1704.52 492.6,1703.92 516.117,1704.31C532.692,1704.58 535.457,1699.77 545.917,1712.81" style="fill:none;stroke:black;stroke-width:5px;"/>
        <path d="M458.372,1665.75C457.725,1666.81 452.831,1674.84 454.327,1680.76C455.174,1684.12 471.193,1682.36 472.655,1682.2" style="fill:none;stroke:black;stroke-width:5px;"/>
        <path d="M337.914,1640.44C333.545,1636.5 332.31,1637.43 323.236,1620.68" style="fill:none;stroke:black;stroke-width:5px;"/>
        <path d="M296.149,1653.99C300.618,1658.34 307.276,1672.2 308.079,1673.87" style="fill:none;stroke:black;stroke-width:5px;"/>
        <path d="M241.925,1594.54C239.981,1595.62 219.348,1606.29 239.773,1618.66C242.529,1620.33 290.782,1636.2 284.368,1624.23C276.94,1610.37 264.818,1616.96 248.349,1606.2" style="fill:none;stroke:black;stroke-width:5px;"/>
        <path d="M278.548,1578.67C219.136,1579.87 189.627,1577.06 184.777,1581.54C166.676,1598.26 230.757,1596.37 238.451,1596.42" style="fill:none;stroke:black;stroke-width:5px;"/>
        <path d="M267.638,1649.72C273.503,1651.24 294.257,1653.67 294.291,1653.67C306.272,1654.01 306.332,1643.95 306.34,1642.64" style="fill:none;stroke:black;stroke-width:5px;"/>
        <path d="M244.173,1635.05C243.193,1637.64 235.103,1650.62 264.195,1649.05C275.466,1648.43 276.775,1646.21 275.004,1639.51" style="fill:none;stroke:black;stroke-width:5px;"/>
        <path d="M274.907,1596.92C279.207,1614.35 289.346,1613.99 295.066,1623.97" style="fill:none;stroke:black;stroke-width:5px;"/>
        <path d="M237.541,1618.22C237.311,1635.16 244.221,1637.08 260.45,1638.03C271.814,1638.7 276.564,1639.67 278.61,1637.61C280.276,1635.92 278.764,1635.69 276.07,1629.14" style="fill:none;stroke:black;stroke-width:5px;"/>
        <path d="M320.957,1627.24C333.814,1595.22 307.366,1588.14 293.683,1558.73C292.085,1555.3 285.711,1522.93 278.399,1527.43C276.251,1528.75 272.353,1531.19 272.809,1541.22C273.48,1555.96 281.457,1554.43 278.253,1586.72" style="fill:none;stroke:black;stroke-width:5px;"/>
        <path d="M460.03,1648.28C459.269,1649.38 452.206,1657.25 456.571,1664.18C457.892,1666.28 461.297,1667.79 471.129,1663.71" style="fill:none;stroke:black;stroke-width:5px;"/>
        <path d="M601.855,1685.1C611.007,1710.79 584.389,1738.16 581.029,1741.62" style="fill:none;stroke:black;stroke-width:5px;"/>
        <path d="M457.109,1595.05C458.793,1597.49 463.089,1601.46 464.917,1627.39" style="fill:none;stroke:black;stroke-width:5px;"/>
        <path d="M542.87,1522.37C546.921,1526.23 557.012,1555.36 591.293,1558.59C629.442,1562.18 643.796,1531.57 649.671,1521.17" style="fill:none;stroke:black;stroke-width:5px;"/>
        <path d="M336,1607L356,1615" style="fill:none;stroke:white;stroke-width:5px;"/>
        <g transform="matrix(1,0,0,1,11,0)">
            <path d="M209,1532L209,1550" style="fill:none;stroke:white;stroke-width:5px;"/>
        </g>
        <path d="M354,1571L369,1598" style="fill:none;stroke:white;stroke-width:5px;"/>
        <g transform="matrix(1,0,0,1,11,0)">
            <path d="M171,1527L186,1555" style="fill:none;stroke:white;stroke-width:5px;"/>
        </g>
        <path d="M396,1573L394,1595" style="fill:none;stroke:white;stroke-width:5px;"/>
        <g transform="matrix(1,0,0,1,11,0)">
            <path d="M147,1555L166,1565" style="fill:none;stroke:white;stroke-width:5px;"/>
        </g>
    </g>
</svg>
