<?xml version="1.0" encoding="UTF-8" standalone="no"?>
<!DOCTYPE svg PUBLIC "-//W3C//DTD SVG 1.1//EN" "http://www.w3.org/Graphics/SVG/1.1/DTD/svg11.dtd">
<svg width="100%" height="100%" viewBox="0 0 500 500" version="1.1" xmlns="http://www.w3.org/2000/svg" xmlns:xlink="http://www.w3.org/1999/xlink" xml:space="preserve" xmlns:serif="http://www.serif.com/" style="fill-rule:evenodd;clip-rule:evenodd;stroke-linejoin:round;stroke-miterlimit:2;">
    <g transform="matrix(10,0,0,10,0,-3.75e-05)">
        <path d="M25,1.646C30.047,1.646 34.937,2.118 39.511,2.906C43.455,3.614 46.452,6.607 47.161,10.544C47.95,15.112 48.344,19.916 48.344,25.034C48.344,30.074 47.95,34.957 47.161,39.524C46.452,43.462 43.455,46.375 39.511,47.084C34.937,47.872 30.047,48.344 25,48.344C19.952,48.344 15.063,47.872 10.488,47.084C6.545,46.375 3.627,43.462 2.917,39.524C2.05,34.957 1.655,30.074 1.655,25.034C1.655,19.916 2.05,15.112 2.917,10.544C3.627,6.607 6.545,3.614 10.488,2.906C15.063,2.118 19.952,1.646 25,1.646Z" style="fill:rgb(5,62,255);"/>
        <path d="M24.999,50C20.126,50 15.15,49.566 10.206,48.714C5.54,47.876 2.126,44.468 1.287,39.818C0.433,35.323 0,30.344 0,25.035C0,19.65 0.421,14.81 1.289,10.235C2.122,5.621 5.619,2.099 10.196,1.277C20.118,-0.427 29.894,-0.424 39.792,1.274C44.431,2.107 47.96,5.632 48.791,10.252C48.959,11.416 49.118,12.525 49.276,13.711C49.397,14.617 48.761,15.45 47.854,15.569C46.953,15.708 46.113,15.056 45.994,14.15C45.836,12.976 45.68,11.877 45.521,10.781C44.946,7.59 42.468,5.116 39.218,4.533C29.716,2.9 20.296,2.897 10.77,4.535C7.532,5.116 5.143,7.533 4.547,10.838C3.716,15.219 3.312,19.859 3.312,25.035C3.312,30.138 3.726,34.91 4.544,39.219C5.134,42.485 7.523,44.87 10.783,45.456C20.274,47.094 29.717,47.097 39.228,45.453C42.527,44.862 44.946,42.477 45.531,39.232C46.298,34.791 46.688,30.011 46.688,25.035L46.688,23.773C46.688,22.859 47.43,22.118 48.344,22.118C49.258,22.118 50,22.859 50,23.773L50,25.035C50,30.198 49.594,35.168 48.792,39.807C47.968,44.387 44.44,47.878 39.804,48.711C34.85,49.566 29.872,50 24.999,50Z" style="fill-rule:nonzero;"/>
        <g transform="matrix(-1,0,0,1,50,0)">
            <path d="M24.999,50C20.126,50 15.15,49.566 10.206,48.714C5.54,47.876 2.126,44.468 1.287,39.818C0.433,35.323 0,30.344 0,25.035C0,19.65 0.421,14.81 1.289,10.235C2.122,5.621 5.619,2.099 10.196,1.277C20.118,-0.427 29.894,-0.424 39.792,1.274C44.431,2.107 47.96,5.632 48.791,10.252C48.959,11.416 49.118,12.525 49.276,13.711C49.397,14.617 48.761,15.45 47.854,15.569C46.953,15.708 46.113,15.056 45.994,14.15C45.836,12.976 45.68,11.877 45.521,10.781C44.946,7.59 42.468,5.116 39.218,4.533C29.716,2.9 20.296,2.897 10.77,4.535C7.532,5.116 5.143,7.533 4.547,10.838C3.716,15.219 3.312,19.859 3.312,25.035C3.312,30.138 3.726,34.91 4.544,39.219C5.134,42.485 7.523,44.87 10.783,45.456C20.274,47.094 29.717,47.097 39.228,45.453C42.527,44.862 44.946,42.477 45.531,39.232C46.298,34.791 46.688,30.011 46.688,25.035L46.688,23.773C46.688,22.859 47.43,22.118 48.344,22.118C49.258,22.118 50,22.859 50,23.773L50,25.035C50,30.198 49.594,35.168 48.792,39.807C47.968,44.387 44.44,47.878 39.804,48.711C34.85,49.566 29.872,50 24.999,50Z" style="fill-rule:nonzero;"/>
        </g>
        <g transform="matrix(0.0858637,0,0,0.0899122,7.5619,35.132)">
            <text x="0px" y="0px" style="font-family:'MicrosoftSansSerif', 'Microsoft Sans Serif', sans-serif;font-size:320.312px;fill:white;stroke:white;stroke-width:5.69px;">Bē</text>
        </g>
    </g>
</svg>
